# xmcd
#
# Track frame offsets:
#   150
#   15977
#   31641
#   49082
#   66159
#   81868
#   97052
#   112236
#   125459
#   142052
#   157471
#   170502
#   186540
#   201419
#   214527
#   227989
#   240687
#   256124
#   271475
#   288387
#
# Disc length: 4034 seconds
#
# Revision: 0
# Processed by: cddbd v1.5.2PL0 Copyright (c) Steve Scherf et al.
# Submitted via: uFREEDB ActiveX Control 1.5
#
DISCID=320fc014
DTITLE=Barretos 2007 - Vol.01 - Barretos 2007 - Vol.01
DYEAR=2007
DGENRE=Country
TTITLE0=Bomba no cabaré
TTITLE1=Pega fogo cabaré
TTITLE2=Risca faca
TTITLE3=Faz amor que passa
TTITLE4=Um botão pra dar
TTITLE5=Bebo e vou trabaia
TTITLE6=Você não vale nada
TTITLE7=Fazer valer
TTITLE8=Pneuzinho
TTITLE9=Freio de mão puxado
TTITLE10=Vou mandar o Paulo atrás
TTITLE11=Chorão apaixonado
TTITLE12=Eu topo o que vier
TTITLE13=E bicho bom, é mulher
TTITLE14=Nem com reza
TTITLE15=Bobeou a gente pimba
TTITLE16=Amigo Apaixonado
TTITLE17=Ta doendo demais
TTITLE18=O granfino e o caipira
TTITLE19=Vida boa
EXTD=
EXTT0=
EXTT1=
EXTT2=
EXTT3=
EXTT4=
EXTT5=
EXTT6=
EXTT7=
EXTT8=
EXTT9=
EXTT10=
EXTT11=
EXTT12=
EXTT13=
EXTT14=
EXTT15=
EXTT16=
EXTT17=
EXTT18=
EXTT19=
PLAYORDER=
